<svg width="40" height="41" viewBox="0 0 40 41" fill="none" xmlns="http://www.w3.org/2000/svg">
<path d="M39.5 20.2182C39.5 30.9877 30.7696 39.7182 20 39.7182C9.23045 39.7182 0.5 30.9877 0.5 20.2182C0.5 9.44869 9.23045 0.718262 20 0.718262C30.7696 0.718262 39.5 9.44869 39.5 20.2182Z" stroke="#222222"/>
<path fill-rule="evenodd" clip-rule="evenodd" d="M17.18 12.8103C15.9599 12.8654 14.9024 13.1639 14.0485 14.0148C13.1916 14.8701 12.897 15.9325 12.8419 17.1407C12.8075 17.8948 12.6069 23.5919 13.1886 25.086C13.5809 26.0939 14.3535 26.8689 15.37 27.2627C15.8443 27.4474 16.3857 27.5723 17.18 27.6088C23.821 27.9096 26.2827 27.7458 27.3208 25.086C27.505 24.6125 27.6318 24.0712 27.6669 23.2784C27.9704 16.6158 27.6177 15.1716 26.4602 14.0148C25.5422 13.0984 24.4623 12.4746 17.18 12.8103ZM17.2411 26.2688C16.514 26.2361 16.1195 26.1149 15.8562 26.0129C15.194 25.7553 14.6966 25.2596 14.4408 24.6008C13.9978 23.4655 14.1447 18.0736 14.1842 17.2012C14.223 16.3465 14.396 15.5655 14.9986 14.9625C15.7444 14.2181 16.7079 13.8532 23.2684 14.1495C24.1245 14.1882 24.9068 14.361 25.5109 14.9625C26.2566 15.7069 26.6265 16.6785 26.3252 23.2183C26.2924 23.9441 26.1709 24.338 26.0687 24.6008C25.3938 26.3316 23.8411 26.5718 17.2411 26.2688ZM23.3407 16.2355C23.3407 16.7283 23.7412 17.129 24.2356 17.129C24.7301 17.129 25.1313 16.7283 25.1313 16.2355C25.1313 15.7427 24.7301 15.3423 24.2356 15.3423C23.7412 15.3423 23.3407 15.7427 23.3407 16.2355ZM16.4252 20.2092C16.4252 22.3204 18.1398 24.032 20.2547 24.032C22.3697 24.032 24.0842 22.3204 24.0842 20.2092C24.0842 18.098 22.3697 16.3874 20.2547 16.3874C18.1398 16.3874 16.4252 18.098 16.4252 20.2092ZM17.7691 20.2092C17.7691 18.8395 18.8818 17.7281 20.2547 17.7281C21.6277 17.7281 22.7404 18.8395 22.7404 20.2092C22.7404 21.5797 21.6277 22.6914 20.2547 22.6914C18.8818 22.6914 17.7691 21.5797 17.7691 20.2092Z" fill="#222222"/>
</svg>
