<svg width="28" height="29" viewBox="0 0 28 29" fill="none" xmlns="http://www.w3.org/2000/svg">
<g clip-path="url(#clip0_23_1605)">
<path d="M14 0.484375C8.20138 0.484375 3.5 5.18575 3.5 10.9844C3.5 13.2677 4.24856 15.3629 5.49281 17.0788C5.51513 17.1199 5.51863 17.1658 5.544 17.2052L12.544 27.7052C12.8686 28.1921 13.4155 28.4844 14 28.4844C14.5845 28.4844 15.1314 28.1921 15.456 27.7052L22.456 17.2052C22.4818 17.1658 22.4849 17.1199 22.5072 17.0788C23.7514 15.3629 24.5 13.2677 24.5 10.9844C24.5 5.18575 19.7986 0.484375 14 0.484375ZM14 14.4844C12.0671 14.4844 10.5 12.9172 10.5 10.9844C10.5 9.0515 12.0671 7.48438 14 7.48438C15.9329 7.48438 17.5 9.0515 17.5 10.9844C17.5 12.9172 15.9329 14.4844 14 14.4844Z" fill="#222222"/>
</g>
<defs>
<clipPath id="clip0_23_1605">
<rect width="28" height="28" fill="white" transform="translate(0 0.484375)"/>
</clipPath>
</defs>
</svg>
