<svg width="20" height="20" viewBox="0 0 28 29" fill="none" xmlns="http://www.w3.org/2000/svg">
<path d="M24.7346 5.06055H3.26539C1.46169 5.06055 0 6.52223 0 8.32544V21.6433C0 23.4466 1.46169 24.9083 3.26539 24.9083H24.7346C26.5378 24.9083 28 23.4466 28 21.6433V8.32544C28 6.52223 26.5379 5.06055 24.7346 5.06055ZM26.4409 22.523L25.8193 23.2591L17.1148 16.1551L15.7668 17.4377C14.7678 18.3552 13.2323 18.3552 12.2332 17.4377L10.8852 16.1551L2.18072 23.2591L1.55914 22.523L9.73164 15.0573L1.5056 7.32641L1.99194 6.68203L14 15.7807L26.008 6.68203L26.494 7.32641L18.2684 15.0573L26.4409 22.523Z" fill="#222222"/>
</svg>
