<svg width="20" height="20" viewBox="0 0 20 20" fill="none" xmlns="http://www.w3.org/2000/svg">
<path d="M7.71062 2.18666L8.46779 3.54341C9.1511 4.7678 8.87682 6.374 7.80057 7.45022C7.80057 7.45022 6.49528 8.75572 8.862 11.1225C11.228 13.4885 12.5343 12.184 12.5343 12.184C13.6106 11.1077 15.2167 10.8334 16.4411 11.5168L17.7979 12.2739C19.6468 13.3057 19.8651 15.8985 18.24 17.5237C17.2635 18.5002 16.0672 19.26 14.7448 19.3101C12.5187 19.3946 8.7381 18.8312 4.94573 15.0388C1.1534 11.2464 0.589995 7.46588 0.674392 5.23973C0.724524 3.91732 1.48435 2.72106 2.46086 1.74456C4.08597 0.11945 6.67878 0.337803 7.71062 2.18666Z" fill="#222222"/>
</svg>
