<svg width="40" height="41" viewBox="0 0 40 41" fill="none" xmlns="http://www.w3.org/2000/svg">
<circle cx="20" cy="20.2183" r="19.5" stroke="#222222"/>
<path fill-rule="evenodd" clip-rule="evenodd" d="M17.35 26.4683C23.0063 26.4683 26.1002 21.6585 26.1002 17.488C26.1002 17.3511 26.1002 17.2152 26.0912 17.0798C26.693 16.6337 27.2124 16.0797 27.6254 15.4459C27.0648 15.7013 26.4689 15.8688 25.8596 15.9426C26.5011 15.548 26.9816 14.9281 27.2117 14.1966C26.6076 14.5643 25.9473 14.8238 25.2585 14.963C24.0938 13.6923 22.1459 13.6307 20.907 14.826C20.1088 15.5968 19.7693 16.7459 20.0174 17.842C17.5448 17.7143 15.2409 16.5159 13.679 14.5445C12.8628 15.9867 13.2803 17.831 14.6316 18.7571C14.1422 18.7425 13.6633 18.6073 13.2353 18.3627V18.4027C13.2361 19.905 14.2681 21.1985 15.7026 21.4961C15.2499 21.623 14.7748 21.6414 14.3146 21.5499C14.7171 22.836 15.872 23.7169 17.1873 23.7422C16.0983 24.6207 14.753 25.0976 13.368 25.0961C13.1237 25.0953 12.8793 25.0807 12.6357 25.0507C14.0425 25.9768 15.6786 26.4683 17.35 26.466" fill="#222222"/>
</svg>
